<svg width="2733" height="1025" viewBox="0 0 2733 1025" fill="none" xmlns="http://www.w3.org/2000/svg">
<path d="M368.65 76.797C328.035 46.0063 276.517 30.6709 214.457 30.6709H0V441.493H150.958V379.073H215.056C277.116 379.073 328.514 363.857 369.009 333.067C409.504 302.396 429.752 259.624 429.752 204.872C429.752 150.12 409.384 107.468 368.65 76.797ZM250.04 237.46C239.616 245.127 226.437 249.081 210.623 249.081H150.479V160.663H211.222C226.677 160.663 239.616 164.497 250.04 172.164C260.463 179.832 265.615 190.735 265.615 204.872C265.615 219.009 260.463 229.552 250.04 237.46Z" fill="white"/>
<path d="M600.478 158.027V184.624H738.617V288.019H600.478V314.616H799.839V441.493H450.119V30.6709H799.839V158.027H600.478Z" fill="white"/>
<path d="M1766.59 791.093C1737.11 741.972 1701.17 733.705 1701.17 733.705C1737.11 705.43 1755.21 667.331 1755.21 619.288C1755.21 571.245 1737.11 532.068 1700.93 504.752C1664.75 477.316 1619.46 463.657 1564.95 463.657H1340.55V879.152H1491.63V775.039H1536.56C1610.24 775.039 1646.66 839.735 1646.66 878.912H1796.06C1796.06 878.912 1796.06 849.32 1766.59 791.093ZM1581.12 643.01C1573.82 648.761 1564.35 651.517 1553.09 651.517H1491.63V587.18H1553.09C1564.35 587.18 1573.82 589.935 1581.12 595.686C1588.55 601.437 1592.27 609.344 1592.27 619.288C1592.27 629.232 1588.55 637.259 1581.12 643.01Z" fill="white"/>
<path d="M1938.85 314.137V30.7906H1788.5V441.493H2061.42V314.137H1938.85Z" fill="white"/>
<path d="M453.61 464.975V544.408C388.554 491.333 339.912 464.975 248.738 464.975H177.093V878.912H309.001V620.606C331.645 631.269 341.589 640.015 360.878 657.986C378.61 674.52 392.867 693.33 407.603 714.296C422.34 735.262 433.841 759.703 441.988 787.619C450.135 815.534 454.209 845.965 454.209 878.912H601.693V464.975H453.61Z" fill="white"/>
<path d="M2197.66 706.389C2186.27 689.616 2169.74 675.358 2148.18 663.977C2185.32 641.692 2203.89 612.339 2203.89 575.798C2203.89 545.127 2189.39 518.649 2160.76 496.605C2132 474.56 2097.38 463.657 2056.88 463.657H1813.31V877.594H2082.88C2123.14 877.594 2155 868.01 2178.97 848.721C2202.81 829.312 2214.67 804.511 2214.67 773.96C2214.67 745.806 2208.92 723.162 2197.66 706.389ZM1967.15 573.641H2016.51C2023.34 573.641 2028.85 575.798 2033.04 580.111C2037.23 584.424 2039.27 589.456 2039.27 595.207C2039.27 600.958 2037.23 605.989 2033.04 610.183C2028.85 614.496 2023.34 616.652 2016.51 616.652H1967.15V573.641ZM2040.47 770.007C2035.8 774.799 2029.57 777.195 2021.66 777.195H1967.15V728.433H2021.66C2029.57 728.433 2035.8 730.83 2040.47 735.622C2044.9 740.414 2047.18 746.285 2047.18 752.994C2047.18 759.703 2044.9 765.214 2040.47 770.007Z" fill="white"/>
<path d="M2241.63 463.657V877.594H2393.18V463.657H2241.63Z" fill="white"/>
<path d="M2412.83 463.657V591.972H2497.42V877.115H2648.49V591.972H2732.36V463.657H2412.83Z" fill="white"/>
<path d="M2232.39 158.147V184.624H2369.57V288.019H2232.39V314.736H2431.63V441.493H2081.91V30.7906H2431.63V158.147H2232.39Z" fill="white"/>
<path d="M1707.03 76.797C1666.29 46.1261 1614.89 30.6709 1552.83 30.6709H1338.26V441.493H1489.33V379.193H1553.31C1615.37 379.193 1666.77 363.857 1707.27 333.067C1747.76 302.396 1768.01 259.744 1768.01 204.872C1768.01 150 1747.64 107.468 1707.03 76.797ZM1588.3 237.46C1577.87 245.247 1564.81 249.081 1548.88 249.081H1488.74V160.783H1549.48C1564.93 160.783 1577.87 164.497 1588.3 172.164C1598.72 179.832 1603.99 190.735 1603.87 204.872C1603.87 218.77 1598.72 229.552 1588.3 237.46Z" fill="white"/>
<path d="M1235.58 69.6085C1215.69 50.6788 1194.25 35.583 1171 24.321C1159.98 19.0495 1148.36 14.4968 1136.5 10.9025C1112.54 3.59424 1087.02 0 1059.94 0C1035.26 0 1011.9 2.87539 989.735 8.98561C968.768 14.7364 948.88 23.0032 930.31 34.3849C914.016 43.9696 898.681 55.8306 884.064 69.6085C835.422 115.974 811.101 171.925 811.101 237.46C811.101 302.995 834.464 356.669 881.189 402.435C882.147 403.514 883.106 404.472 884.064 405.431C903.114 423.522 923.601 438.138 945.646 449.041C979.192 466.054 1016.21 474.56 1056.83 475.039H1059.94C1111.82 475.039 1157.95 461.741 1198.44 435.143C1201.2 433.226 1203.83 431.429 1206.59 429.512C1216.53 422.443 1226.36 414.296 1235.58 405.431C1284.34 358.945 1308.66 302.995 1308.66 237.46C1308.66 171.925 1284.34 115.974 1235.58 69.6085ZM1113.5 298.442C1098.76 312.819 1080.91 320.007 1059.94 320.007C1038.98 320.007 1021 312.819 1006.15 298.442C991.412 284.065 983.984 266.573 983.984 246.445C983.984 226.318 991.412 208.945 1006.15 194.568C1021 180.191 1038.98 172.883 1059.94 172.883C1080.91 172.883 1098.76 180.191 1113.5 194.568C1128.23 208.945 1135.66 226.198 1135.66 246.445C1135.66 266.693 1128.23 284.065 1113.5 298.442Z" fill="white"/>
<path d="M153.251 464.975H2.2925V878.912H153.251V464.975Z" fill="white"/>
<path d="M1103.21 408.186C1134.72 407.827 1130.29 381.709 1096.62 381.948C1057.32 382.068 956.444 411.661 916.908 443.17C863.354 486.062 808.721 557.827 808.721 557.827C808.721 557.827 791.109 583.226 767.507 594.248C767.507 594.248 704.728 631.509 726.772 653.913C748.817 676.077 766.309 692.012 792.068 666.493C817.826 640.974 813.274 614.975 829.688 598.442C846.101 581.908 870.662 579.991 905.167 586.581C939.671 593.17 1066.07 623.002 1066.07 623.002C1066.07 623.002 1114.71 608.745 1084.52 592.331C1054.33 575.918 967.826 560.942 967.826 560.942C967.826 560.942 940.989 547.403 960.398 539.616C979.687 531.828 1100.33 519.728 1191.51 552.315C1281.48 584.544 1341.51 649.36 1346.66 625.279C1351.45 602.395 1290.71 562.739 1230.81 538.298C1184.56 519.248 1215.35 495.287 1301.37 555.79C1324.97 572.443 1344.74 552.914 1325.45 530.75C1308.44 511.221 1274.89 490.255 1219.3 470.247C1080.33 420.766 972.619 465.215 987.355 447.483C997.898 434.903 1069.54 408.785 1103.21 408.306V408.186Z" fill="black"/>
<path d="M1234.76 544.648C1226.37 536.501 1217.39 529.073 1208.4 522.483C1205.29 520.207 1202.17 518.05 1199.06 516.014C1159.04 489.177 1113.39 475.638 1062.24 475.039H1059.12C1018.51 475.039 981.484 483.186 947.818 499.48C925.654 510.263 904.927 524.64 885.638 542.491C884.799 543.21 884.2 543.929 883.362 544.648C834.6 591.013 810.279 647.084 810.279 712.499C810.279 777.914 834.6 833.984 883.362 880.47C903.969 900.118 926.253 915.574 950.574 926.836C967.227 934.743 984.959 940.614 1003.41 944.447C1021.14 948.281 1039.71 950.078 1059.12 950.078C1082.6 950.078 1105.01 947.323 1126.09 941.812C1137.59 938.936 1148.86 935.102 1159.52 930.55C1186.96 919.048 1211.88 902.275 1234.76 880.47C1283.52 833.984 1307.84 778.034 1307.84 712.499C1307.84 646.964 1283.52 591.013 1234.76 544.648ZM1112.67 773.481C1097.94 787.978 1080.09 795.047 1059.12 795.047C1038.15 795.047 1020.3 787.978 1005.45 773.481C990.59 759.104 983.281 741.732 983.281 721.484C983.281 701.237 990.59 683.984 1005.45 669.608C1020.3 655.111 1038.15 648.042 1059.12 648.042C1080.09 648.042 1097.94 655.111 1112.67 669.608C1127.53 683.984 1134.84 701.357 1134.84 721.484C1134.84 741.612 1127.53 759.104 1112.67 773.481Z" fill="white"/>
<path d="M897.02 840.016C848.977 813.419 830.766 787.78 816.149 773.403C790.031 747.405 779.009 780.232 793.385 797.844C808.002 815.456 838.433 846.126 865.989 862.66C893.425 879.074 946.5 899.082 958.721 902.796C970.941 906.51 979.687 923.642 956.564 928.195C918.944 935.503 880.127 910.104 850.893 889.018C821.66 867.932 795.302 835.823 779.128 818.81C762.954 801.797 739.951 818.81 754.089 839.178C768.226 859.545 814.112 931.909 901.093 958.387C988.074 984.864 1083.68 962.34 1098.66 955.99C1113.63 949.76 1193.78 918.011 1160.72 946.645C1127.65 975.519 1082.72 996.845 1082.72 996.845C1082.72 996.845 1048.46 1036.02 1097.82 1021.88C1147.18 1007.75 1206.36 980.192 1244.46 934.545C1282.8 889.138 1277.89 856.43 1288.67 841.813C1299.34 827.197 1305.8 819.289 1318.5 814.377C1331.2 809.465 1368.22 808.986 1385.6 791.494C1402.97 774.002 1422.62 747.764 1396.74 723.203C1370.98 698.643 1349.42 727.996 1343.18 735.064C1336.95 742.133 1300.65 791.494 1232.12 778.435C1219.9 776.039 1089.07 750.28 1067.87 753.036C1046.66 755.911 1043.9 774.96 1066.19 777.836C1080.45 779.753 1107.4 788.978 1148.74 797.365C1229.13 813.419 1143.11 881.11 1071.58 881.949C1024.73 882.907 963.273 876.917 896.9 840.016H897.02Z" fill="black"/>
</svg>
